REM DIRINDEX 1\2,1\3,1\4,1\5
REM DIRNAME folder01,folder02,folder03,folder04,folder05
TITLE ""
FILE "154.mp3" MP3
  TRACK 01 AUDIO
    TITLE "0:"
    INDEX 01 00:00:00
  TRACK 02 AUDIO
    TITLE "2:cjc046_4342"
    INDEX 01 00:00:13
  TRACK 03 AUDIO
    TITLE "0:"
    INDEX 01 00:01:22
  TRACK 04 AUDIO
    TITLE "3:cjc046_4343"
    INDEX 01 00:01:42
  TRACK 05 AUDIO
    TITLE "0:"
    INDEX 01 00:02:65
  TRACK 06 AUDIO
    TITLE "4:cjc046_4344"
    INDEX 01 00:03:00
  TRACK 07 AUDIO
    TITLE "0:"
    INDEX 01 00:04:09
  TRACK 08 AUDIO
    TITLE "2:cjc046_4345"
    INDEX 01 00:05:10
  TRACK 09 AUDIO
    TITLE "0:"
    INDEX 01 00:06:31
  TRACK 10 AUDIO
    TITLE "3:cjc046_4346"
    INDEX 01 00:06:53
  TRACK 11 AUDIO
    TITLE "0:"
    INDEX 01 00:07:56
  TRACK 12 AUDIO
    TITLE "4:cjc046_4347"
    INDEX 01 00:07:72
  TRACK 13 AUDIO
    TITLE "0:"
    INDEX 01 00:09:18
  TRACK 14 AUDIO
    TITLE "2:cjc046_4348"
    INDEX 01 00:10:25
  TRACK 15 AUDIO
    TITLE "0:"
    INDEX 01 00:11:39
  TRACK 16 AUDIO
    TITLE "3:cjc046_4349"
    INDEX 01 00:11:60
  TRACK 17 AUDIO
    TITLE "0:"
    INDEX 01 00:13:30
  TRACK 18 AUDIO
    TITLE "4:cjc046_4350"
    INDEX 01 00:13:47
  TRACK 19 AUDIO
    TITLE "0:"
    INDEX 01 00:14:60
  TRACK 20 AUDIO
    TITLE "2:cjc046_4351"
    INDEX 01 00:15:70
  TRACK 21 AUDIO
    TITLE "0:"
    INDEX 01 00:17:18
  TRACK 22 AUDIO
    TITLE "3:cjc046_4352"
    INDEX 01 00:17:33
  TRACK 23 AUDIO
    TITLE "0:"
    INDEX 01 00:19:01
  TRACK 24 AUDIO
    TITLE "4:cjc046_4353"
    INDEX 01 00:19:18
  TRACK 25 AUDIO
    TITLE "0:"
    INDEX 01 00:20:43
  TRACK 26 AUDIO
    TITLE "2:cjc046_4354"
    INDEX 01 00:21:51
  TRACK 27 AUDIO
    TITLE "0:"
    INDEX 01 00:22:58
  TRACK 28 AUDIO
    TITLE "3:cjc046_4355"
    INDEX 01 00:23:01
  TRACK 29 AUDIO
    TITLE "0:"
    INDEX 01 00:24:10
  TRACK 30 AUDIO
    TITLE "4:cjc046_4356"
    INDEX 01 00:24:25
  TRACK 31 AUDIO
    TITLE "0:"
    INDEX 01 00:25:31
  TRACK 32 AUDIO
    TITLE "2:cjc046_4357"
    INDEX 01 00:26:38
  TRACK 33 AUDIO
    TITLE "0:"
    INDEX 01 00:27:49
  TRACK 34 AUDIO
    TITLE "3:cjc046_4358"
    INDEX 01 00:28:02
  TRACK 35 AUDIO
    TITLE "0:"
    INDEX 01 00:29:36
  TRACK 36 AUDIO
    TITLE "4:cjc046_4359"
    INDEX 01 00:29:50
  TRACK 37 AUDIO
    TITLE "0:"
    INDEX 01 00:30:63
  TRACK 38 AUDIO
    TITLE "2:cjc046_4360"
    INDEX 01 00:31:61
  TRACK 39 AUDIO
    TITLE "0:"
    INDEX 01 00:33:07
  TRACK 40 AUDIO
    TITLE "3:cjc046_4361"
    INDEX 01 00:33:22
  TRACK 41 AUDIO
    TITLE "0:"
    INDEX 01 00:34:45
  TRACK 42 AUDIO
    TITLE "4:cjc046_4362"
    INDEX 01 00:34:59
  TRACK 43 AUDIO
    TITLE "0:"
    INDEX 01 00:36:05
  TRACK 44 AUDIO
    TITLE "2:cjc046_4363"
    INDEX 01 00:37:14
  TRACK 45 AUDIO
    TITLE "0:"
    INDEX 01 00:38:24
  TRACK 46 AUDIO
    TITLE "3:cjc046_4364"
    INDEX 01 00:38:41
  TRACK 47 AUDIO
    TITLE "0:"
    INDEX 01 00:39:66
  TRACK 48 AUDIO
    TITLE "4:cjc046_4365"
    INDEX 01 00:40:11
  TRACK 49 AUDIO
    TITLE "0:"
    INDEX 01 00:41:24
  TRACK 50 AUDIO
    TITLE "2:cjc046_4366"
    INDEX 01 00:42:29
  TRACK 51 AUDIO
    TITLE "0:"
    INDEX 01 00:43:29
  TRACK 52 AUDIO
    TITLE "3:cjc046_4367"
    INDEX 01 00:43:46
  TRACK 53 AUDIO
    TITLE "0:"
    INDEX 01 00:45:02
  TRACK 54 AUDIO
    TITLE "4:cjc046_4368"
    INDEX 01 00:45:22
  TRACK 55 AUDIO
    TITLE "0:"
    INDEX 01 00:46:23
  TRACK 56 AUDIO
    TITLE "2:cjc046_4369"
    INDEX 01 00:47:30
  TRACK 57 AUDIO
    TITLE "0:"
    INDEX 01 00:48:51
  TRACK 58 AUDIO
    TITLE "3:cjc046_4370"
    INDEX 01 00:49:04
  TRACK 59 AUDIO
    TITLE "0:"
    INDEX 01 00:50:23
  TRACK 60 AUDIO
    TITLE "4:cjc046_4371"
    INDEX 01 00:50:41
  TRACK 61 AUDIO
    TITLE "0:"
    INDEX 01 00:51:63
  TRACK 62 AUDIO
    TITLE "2:cjc046_4372"
    INDEX 01 00:53:02
  TRACK 63 AUDIO
    TITLE "0:"
    INDEX 01 00:54:07
  TRACK 64 AUDIO
    TITLE "3:cjc046_4373"
    INDEX 01 00:54:25
  TRACK 65 AUDIO
    TITLE "0:"
    INDEX 01 00:55:38
  TRACK 66 AUDIO
    TITLE "4:cjc046_4374"
    INDEX 01 00:55:53
  TRACK 67 AUDIO
    TITLE "0:"
    INDEX 01 00:56:59
  TRACK 68 AUDIO
    TITLE "2:cjc046_4375"
    INDEX 01 00:57:66
  TRACK 69 AUDIO
    TITLE "0:"
    INDEX 01 00:59:04
  TRACK 70 AUDIO
    TITLE "3:cjc046_4376"
    INDEX 01 00:59:18
  TRACK 71 AUDIO
    TITLE "0:"
    INDEX 01 01:00:43
  TRACK 72 AUDIO
    TITLE "4:cjc046_4377"
    INDEX 01 01:00:59
  TRACK 73 AUDIO
    TITLE "0:"
    INDEX 01 01:01:70
  TRACK 74 AUDIO
    TITLE "2:cjc046_4378"
    INDEX 01 01:03:06
  TRACK 75 AUDIO
    TITLE "0:"
    INDEX 01 01:04:33
  TRACK 76 AUDIO
    TITLE "3:cjc046_4379"
    INDEX 01 01:04:52
  TRACK 77 AUDIO
    TITLE "0:"
    INDEX 01 01:06:47
  TRACK 78 AUDIO
    TITLE "4:cjc046_4380"
    INDEX 01 01:06:65
  TRACK 79 AUDIO
    TITLE "0:"
    INDEX 01 01:08:19
  TRACK 80 AUDIO
    TITLE "2:cjc046_4381"
    INDEX 01 01:09:30
  TRACK 81 AUDIO
    TITLE "0:"
    INDEX 01 01:10:31
  TRACK 82 AUDIO
    TITLE "3:cjc046_4382"
    INDEX 01 01:10:51
  TRACK 83 AUDIO
    TITLE "0:"
    INDEX 01 01:11:66
  TRACK 84 AUDIO
    TITLE "4:cjc046_4383"
    INDEX 01 01:12:11
  TRACK 85 AUDIO
    TITLE "0:"
    INDEX 01 01:13:12
  TRACK 86 AUDIO
    TITLE "2:cjc046_4384"
    INDEX 01 01:14:21
  TRACK 87 AUDIO
    TITLE "0:"
    INDEX 01 01:15:44
  TRACK 88 AUDIO
    TITLE "3:cjc046_4385"
    INDEX 01 01:15:62
  TRACK 89 AUDIO
    TITLE "0:"
    INDEX 01 01:17:18
  TRACK 90 AUDIO
    TITLE "4:cjc046_4386"
    INDEX 01 01:17:37
  TRACK 91 AUDIO
    TITLE "0:"
    INDEX 01 01:18:60
  TRACK 92 AUDIO
    TITLE "2:cjc046_4387"
    INDEX 01 01:19:70
  TRACK 93 AUDIO
    TITLE "0:"
    INDEX 01 01:21:04
  TRACK 94 AUDIO
    TITLE "3:cjc046_4388"
    INDEX 01 01:21:21
  TRACK 95 AUDIO
    TITLE "0:"
    INDEX 01 01:22:15
  TRACK 96 AUDIO
    TITLE "4:cjc046_4389"
    INDEX 01 01:22:35
  TRACK 97 AUDIO
    TITLE "0:"
    INDEX 01 01:23:44
